<?xml version="1.0" encoding="UTF-8" standalone="no"?><svg width="100%" height="100%" viewBox="0 0 1976 358" version="1.1" xmlns="http://www.w3.org/2000/svg" xml:space="preserve" style="fill-rule:evenodd;clip-rule:evenodd;stroke-linejoin:round;stroke-miterlimit:2;"><g><rect id="canvas_background" x="-1" y="-1" width="1978" height="359.28" style="fill:none;"/></g><g><g id="Layer_1"><path id="svg_1" d="M3.6,79.72C11.76,78.43 20.79,77.57 31.1,76.71C41.41,75.85 54.73,75.42 70.2,75.42C83.95,75.42 96.84,76.71 108.87,78.86C120.9,81.01 131.64,84.88 140.66,90.46C149.68,95.62 156.99,102.92 162.14,111.94C167.3,120.96 169.87,132.13 169.87,145.45C169.87,153.61 168.58,160.92 166.43,167.79C163.85,174.66 160.84,180.68 156.98,185.84C153.11,191 148.39,195.29 143.66,198.73C138.5,202.17 133.78,204.32 128.19,204.75C133.78,205.61 140.22,207.33 147.09,209.91C153.96,212.49 160.41,216.78 166.42,221.94C172.44,227.1 177.59,234.4 181.46,242.56C185.33,251.15 187.48,261.46 187.48,273.07C187.48,289.4 184.47,302.72 178.46,313.03C172.44,323.34 164.28,331.51 153.97,337.52C143.66,343.54 131.63,347.4 117.88,349.98C104.13,352.13 89.95,353.42 74.91,353.42C63.31,353.42 52.14,352.99 40.97,352.56C29.8,352.13 16.91,350.84 2.73,349.12L2.73,79.72L3.6,79.72ZM74.07,188.85C80.09,188.85 86.1,188.42 91.26,187.13C96.42,185.84 101.14,184.12 105.44,181.11C109.31,178.1 112.74,174.24 114.89,169.51C117.04,164.78 118.33,158.34 118.33,151.03C118.33,143.73 117.04,137.71 114.46,133.41C111.88,128.68 108.44,125.25 104.58,122.67C100.28,120.09 95.99,118.37 90.83,117.51C85.67,116.65 80.52,116.22 75.79,116.22C68.92,116.22 62.9,116.65 58.17,117.51L58.17,189.26L74.07,189.26L74.07,188.85ZM57.74,307.87C61.18,308.3 65.47,308.73 69.77,309.16C74.5,309.59 78.36,309.59 82.23,309.59C87.39,309.59 92.97,309.16 98.56,308.3C104.15,307.44 109.73,305.29 114.46,302.71C119.62,299.7 123.48,295.84 126.92,290.68C130.36,285.52 131.65,279.08 131.65,270.49C131.65,262.76 130.36,256.31 127.78,251.16C125.2,246.01 121.76,242.14 117.04,238.7C112.31,235.69 107.16,233.54 100.71,232.26C94.26,230.98 87.39,230.54 79.66,230.54L57.75,230.54L57.75,307.87L57.74,307.87Z" style="fill:white;fill-rule:nonzero;stroke:white;stroke-width:1px;"/><path id="svg_2" d="M303.5,353.41C287.6,353.41 274.28,350.83 262.68,345.68C251.08,340.52 241.63,333.65 233.89,324.2C226.16,315.18 220.57,304.44 216.7,292.41C212.83,280.38 211.11,267.06 211.11,252.88C211.11,238.7 212.83,225.38 216.7,212.92C220.57,200.46 226.15,189.72 233.89,180.7C241.62,171.68 251.08,164.37 262.68,159.22C274.28,154.07 288.03,151.49 303.5,151.49C319.4,151.49 332.72,154.07 344.75,159.22C356.35,164.38 366.23,171.68 373.97,180.7C381.7,189.72 387.29,200.46 391.16,212.92C395.03,225.38 396.75,238.7 396.75,252.88C396.75,267.06 395.03,280.38 391.16,292.41C387.29,304.44 381.71,315.18 373.97,324.2C366.24,333.22 356.35,340.53 344.75,345.68C332.72,350.83 318.97,353.41 303.5,353.41ZM303.5,313.03C317.25,313.03 327.56,307.87 333.58,297.56C339.6,287.25 342.6,272.21 342.6,252.88C342.6,233.55 339.59,218.51 333.58,208.2C327.56,197.89 317.25,192.73 303.5,192.73C289.75,192.73 279.87,197.89 273.85,208.2C267.83,218.51 264.83,233.55 264.83,252.88C264.83,272.21 267.84,287.25 273.85,297.56C279.87,307.87 289.76,313.03 303.5,313.03Z" style="fill:white;fill-rule:nonzero;stroke:white;stroke-width:1px;"/><path id="svg_3" d="M508.88,353.41C492.98,353.41 479.66,350.83 468.06,345.68C456.46,340.52 447.01,333.65 439.27,324.2C431.54,315.18 425.95,304.44 422.08,292.41C418.21,280.38 416.49,267.06 416.49,252.88C416.49,238.7 418.21,225.38 422.08,212.92C425.95,200.46 431.53,189.72 439.27,180.7C447,171.68 456.46,164.37 468.06,159.22C479.66,154.07 493.41,151.49 508.88,151.49C524.78,151.49 538.1,154.07 550.13,159.22C561.73,164.38 571.61,171.68 579.35,180.7C587.08,189.72 592.67,200.46 596.54,212.92C600.41,225.38 602.13,238.7 602.13,252.88C602.13,267.06 600.41,280.38 596.54,292.41C592.67,304.44 587.09,315.18 579.35,324.2C571.62,333.22 561.73,340.53 550.13,345.68C538.53,350.83 524.78,353.41 508.88,353.41ZM508.88,313.03C522.63,313.03 532.94,307.87 538.96,297.56C544.98,287.25 547.98,272.21 547.98,252.88C547.98,233.55 544.97,218.51 538.96,208.2C532.94,197.89 522.63,192.73 508.88,192.73C495.13,192.73 485.25,197.89 479.23,208.2C473.21,218.51 470.21,233.55 470.21,252.88C470.21,272.21 473.22,287.25 479.23,297.56C485.25,307.87 495.13,313.03 508.88,313.03Z" style="fill:white;fill-rule:nonzero;stroke:white;stroke-width:1px;"/><path id="svg_4" d="M629.18,73.71C637.77,72.42 646.37,71.56 655.39,71.56C664.41,71.56 673.01,72.42 682.03,73.71L682.03,346.97C673.44,348.26 664.41,349.12 655.39,349.12C646.37,349.12 637.77,348.26 629.18,346.97L629.18,73.71ZM680.74,245.57L728.43,153.62C738.31,152.33 748.19,151.47 758.08,151.47C767.53,151.47 776.56,152.33 785.58,153.62L736.6,242.99L794.17,346.97C783.86,348.26 773.98,349.12 764.52,349.12C755.93,349.12 746.47,348.26 737.02,346.97L680.74,245.57Z" style="fill:white;fill-rule:nonzero;stroke:white;stroke-width:1px;"/><path id="svg_5" d="M912.33,222.37C912.33,216.35 911.47,211.63 909.32,207.76C907.17,203.89 904.59,200.89 901.16,198.74C897.72,196.59 893.43,195.3 888.27,194.44C883.11,193.58 877.53,193.15 871.08,193.15C857.76,193.15 843.15,195.73 828.11,200.45C824.67,194.01 822.09,187.99 820.38,181.97C818.66,176.38 817.8,169.51 817.8,161.35C828.97,157.91 839.71,154.91 850.88,153.62C862.05,151.9 871.93,151.04 881.39,151.47C907.17,151.9 927.36,157.91 941.97,170.8C956.58,183.26 963.45,203.45 963.45,230.95L962.59,343.09C954,345.67 943.26,348.25 930.8,350.82C918.34,353.4 904.16,354.26 888.69,354.26C875.8,354.26 864.2,352.97 853.89,350.39C843.15,348.24 834.13,344.37 826.82,338.79C819.09,333.63 813.5,326.76 809.63,318.6C805.76,310.44 803.61,300.12 803.61,288.09C803.61,276.06 806.19,266.18 811.34,258.01C816.5,249.85 823.37,243.4 831.53,238.68C839.69,233.95 848.72,230.52 858.6,228.37C868.48,226.22 878.36,225.36 888.68,225.36C895.98,225.36 903.72,225.79 912.74,226.65L912.33,222.37ZM911.9,260.61C908.89,260.18 905.88,259.75 902.02,259.32C898.58,258.89 895.58,258.89 892.57,258.89C880.54,258.89 870.66,261.04 863.35,265.33C856.05,269.63 852.61,276.5 852.61,286.38C852.61,292.82 853.9,297.98 856.48,301.42C859.06,304.86 862.5,307.44 866.36,309.15C870.23,310.87 874.52,311.73 878.82,312.16C883.12,312.59 886.98,312.59 890.42,313.02C894.29,313.02 897.72,312.59 901.59,312.16C905.46,311.73 908.46,310.87 911.47,310.44L911.9,260.61Z" style="fill:white;fill-rule:nonzero;stroke:white;stroke-width:1px;"/><path id="svg_6" d="M1012,198.31L987.09,198.31L985.37,191.01L1055.4,101.64L1063.99,101.64L1063.99,157.93L1109.1,157.93C1109.96,161.8 1110.39,165.23 1110.39,167.81C1110.82,170.82 1110.82,173.83 1110.82,177.26C1110.82,180.69 1110.82,184.13 1110.39,187.14C1109.96,190.58 1109.53,194.01 1109.1,197.88L1063.99,197.88L1063.99,273.93C1063.99,281.66 1064.42,287.68 1065.71,292.83C1067,297.56 1068.72,301.42 1071.3,304C1073.88,306.58 1076.46,308.73 1079.89,309.59C1083.33,310.45 1087.62,310.88 1092.35,310.88C1096.22,310.88 1099.65,310.45 1103.52,310.02C1106.96,309.59 1110.39,308.73 1112.97,308.3C1114.69,313.03 1115.98,317.75 1116.84,322.91C1117.7,328.07 1118.13,332.36 1118.13,336.66L1118.13,343.53C1118.13,345.25 1117.7,347.4 1117.7,349.12C1106.1,351.7 1094.5,353.42 1082.04,353.42C1059.27,353.42 1042.08,348.26 1030.05,337.52C1018.02,326.78 1012,309.59 1012,285.96L1012,198.31Z" style="fill:white;fill-rule:nonzero;stroke:white;stroke-width:1px;"/><path id="svg_7" d="M1246.17,222.37C1246.17,216.35 1245.31,211.63 1243.16,207.76C1241.01,203.89 1238.43,200.89 1235,198.74C1231.56,196.59 1227.27,195.3 1222.11,194.44C1216.95,193.58 1211.37,193.15 1204.92,193.15C1191.6,193.15 1176.99,195.73 1161.95,200.45C1158.51,194.01 1155.93,187.99 1154.22,181.97C1152.5,176.38 1151.64,169.51 1151.64,161.35C1162.81,157.91 1173.55,154.91 1184.72,153.62C1195.89,151.9 1205.77,151.04 1215.23,151.47C1241.01,151.9 1261.2,157.91 1275.81,170.8C1290.42,183.26 1297.29,203.45 1297.29,230.95L1296.43,343.09C1287.84,345.67 1277.1,348.25 1264.64,350.82C1252.18,353.39 1238,354.26 1222.53,354.26C1209.64,354.26 1198.04,352.97 1187.73,350.39C1176.99,348.24 1167.97,344.37 1160.66,338.79C1152.93,333.63 1147.34,326.76 1143.47,318.6C1139.6,310.44 1137.45,300.12 1137.45,288.09C1137.45,276.06 1140.03,266.18 1145.18,258.01C1150.34,249.85 1157.21,243.4 1164.94,238.68C1173.1,233.95 1182.13,230.52 1192.01,228.37C1201.89,226.22 1211.77,225.36 1222.09,225.36C1229.39,225.36 1237.13,225.79 1246.15,226.65L1246.17,222.37ZM1245.74,260.61C1242.73,260.18 1239.72,259.75 1235.86,259.32C1232.42,258.89 1229.42,258.89 1226.41,258.89C1214.38,258.89 1204.5,261.04 1197.19,265.33C1189.89,269.63 1186.45,276.5 1186.45,286.38C1186.45,292.82 1187.74,297.98 1190.32,301.42C1192.9,304.86 1196.34,307.44 1200.2,309.15C1204.07,310.87 1208.36,311.73 1212.66,312.16C1216.96,312.59 1220.82,312.59 1224.26,313.02C1228.13,313.02 1231.56,312.59 1235.43,312.16C1239.3,311.73 1242.3,310.87 1245.31,310.44L1245.74,260.61Z" style="fill:white;fill-rule:nonzero;stroke:white;stroke-width:1px;"/><path id="svg_8" d="M1335.11,75.85C1344.13,74.56 1352.73,73.7 1361.32,73.7C1369.91,73.7 1378.94,74.56 1387.96,75.85L1387.96,174.67C1391.83,167.8 1397.84,162.21 1406.87,157.91C1415.46,153.61 1425.35,151.47 1436.95,151.47C1448.12,151.47 1458.43,153.62 1468.31,157.49C1477.76,161.36 1486.36,167.37 1493.23,175.54C1500.1,183.71 1505.69,193.59 1509.56,206.05C1513.43,218.08 1515.58,232.69 1515.58,249.45C1515.58,265.78 1513,279.96 1508.28,292.85C1503.12,305.74 1496.25,316.48 1486.8,325.5C1477.35,334.52 1465.75,341.4 1452,346.12C1438.25,350.85 1422.78,353.42 1405.6,353.42C1400.01,353.42 1394.43,352.99 1388.41,352.56C1382.39,352.13 1375.95,351.27 1369.93,350.41C1363.49,349.55 1357.9,348.26 1351.88,346.97C1346.29,345.68 1340.71,343.96 1335.98,342.24L1335.98,75.85L1335.11,75.85ZM1387.96,307.01C1390.97,307.87 1393.98,308.73 1397.41,308.73C1400.85,309.16 1404.28,309.16 1407.72,309.16C1424.05,309.16 1436.51,304.43 1445.96,294.98C1454.98,285.53 1459.71,270.49 1459.71,250.3C1459.71,232.25 1456.7,218.51 1451.12,209.48C1445.53,200.03 1435.65,195.3 1421.9,195.3C1412.02,195.3 1403.85,198.74 1397.41,205.18C1390.97,211.62 1387.96,222.37 1387.96,236.54L1387.96,307.01Z" style="fill:white;fill-rule:nonzero;stroke:white;stroke-width:1px;"/><path id="svg_9" d="M1543.92,78C1552.94,76.71 1561.54,75.85 1570.56,75.85C1579.15,75.85 1587.75,76.71 1596.77,78L1596.77,274.35C1596.77,282.08 1597.2,288.1 1598.06,293.25C1598.92,297.98 1600.21,301.84 1602.36,304.42C1604.08,307 1606.66,308.72 1609.66,310.01C1612.67,310.87 1616.53,311.3 1620.83,311.3C1622.98,311.3 1625.13,311.3 1627.27,310.87C1629.85,310.44 1632,310.44 1634.14,309.58C1636.72,319.89 1638.44,329.77 1638.44,339.66L1638.44,345.25C1638.44,346.97 1638.01,348.69 1637.58,350.84C1633.71,352.13 1628.99,352.99 1623.4,353.42C1617.81,353.85 1612.66,354.28 1607.93,354.28C1588.6,354.28 1573.56,349.12 1561.96,338.38C1550.36,327.64 1544.77,310.45 1544.77,286.82L1544.77,78L1543.92,78Z" style="fill:white;fill-rule:nonzero;stroke:white;stroke-width:1px;"/><path id="svg_10" d="M1697.31,268.77C1698.17,283.81 1703.33,294.55 1713.21,301.42C1722.66,308.29 1735.12,311.3 1750.59,311.3C1759.18,311.3 1767.78,310.44 1776.37,308.72C1785.39,307 1793.56,304.85 1801.72,301.85C1804.3,307.01 1806.88,313.02 1809.02,319.9C1811.17,326.77 1812.03,334.51 1812.46,342.24C1793.13,349.54 1771.21,353.41 1746.72,353.41C1728.67,353.41 1713.21,350.83 1700.75,346.11C1687.86,340.95 1677.55,334.08 1669.39,325.49C1661.23,316.47 1655.21,306.16 1651.34,293.7C1647.47,281.67 1645.75,268.35 1645.75,253.74C1645.75,239.56 1647.9,226.24 1651.77,213.78C1655.64,201.32 1661.65,190.58 1669.39,181.13C1677.12,172.11 1687.01,164.8 1698.61,159.22C1710.21,154.06 1723.53,151.06 1739,151.06C1752.32,151.06 1764.35,153.64 1775.09,158.36C1785.4,163.09 1794.42,169.53 1801.73,177.69C1809.03,185.85 1814.62,195.74 1818.49,206.91C1822.36,218.08 1824.08,230.54 1824.08,243.43C1824.08,248.16 1824.08,252.88 1823.65,257.61C1823.22,262.34 1822.79,265.77 1822.36,268.78L1697.31,268.78L1697.31,268.77ZM1773.36,231.82C1772.93,219.79 1769.49,210.34 1763.48,203.03C1757.46,195.73 1748.87,191.86 1737.7,191.86C1725.24,191.86 1715.79,195.3 1709.34,202.17C1702.9,209.04 1699.03,218.93 1697.74,231.82L1773.36,231.82Z" style="fill:white;fill-rule:nonzero;stroke:white;stroke-width:1px;"/><path id="svg_11" d="M1876.05,66.4C1876.05,66.4 1849.41,5.82 1833.08,11.83C1761.33,39.33 1873.9,195.29 1873.9,195.29C1873.9,195.29 1994.63,96.9 1961.98,43.62C1953.39,29.44 1914.72,24.72 1914.72,24.72L1876.05,66.4Z" style="fill:rgb(207,32,41);fill-rule:nonzero;"/><path id="svg_12" d="M1881.63,81.01C1878.19,84.45 1872.61,81.87 1872.61,81.87C1867.45,80.15 1866.59,76.71 1864.02,68.12C1860.58,56.52 1851.56,25.15 1839.1,21.29C1837.38,20.86 1834.8,20.43 1830.08,23.01C1823.21,27.31 1819.34,34.18 1818.48,44.06C1814.61,85.74 1860.16,160.93 1876.05,182.41C1876.91,181.98 1877.34,181.12 1878.2,180.26C1901.83,159.21 1973.15,95.62 1951.67,47.07C1948.23,39.77 1942.65,36.33 1938.35,35.04C1922.88,30.31 1895.81,39.34 1882.92,75.86L1881.63,79.3L1881.63,81.01ZM1873.9,203.46C1861.87,199.59 1808.16,113.23 1802.15,59.1C1798.71,27.74 1811.17,13.56 1822.34,6.68C1830.07,1.95 1837.81,1.09 1845.11,3.24C1861.87,8.83 1871.75,30.74 1877.33,49.21C1894.95,21.28 1922.87,10.97 1944.36,17.42C1955.1,20.86 1963.69,28.59 1968.42,38.9C1995.49,99.91 1919.44,167.8 1890.65,193.15C1887.64,195.73 1885.49,197.88 1884.21,199.17C1884.21,199.6 1877.77,206.47 1873.9,203.46Z" style="fill:white;fill-rule:nonzero;stroke:white;stroke-width:1px;"/></g></g></svg>