<?xml version="1.0" encoding="utf-8" standalone="no"?><svg width="1975.9999999999998" height="357.28003000000007" xmlns="http://www.w3.org/2000/svg"><g><title>background</title><rect fill="none" id="canvas_background" height="359.28003" width="1978" y="-1" x="-1"/></g><g><title>Layer 1</title><g id="Layer_1"><path id="svg_1" d="m3.600097,79.72c8.16,-1.29 17.19,-2.15 27.5,-3.01s23.63,-1.29 39.1,-1.29c13.75,0 26.64,1.29 38.67,3.44c12.03,2.15 22.77,6.02 31.79,11.6c9.02,5.16 16.33,12.46 21.48,21.48c5.16,9.02 7.73,20.19 7.73,33.51c0,8.16 -1.29,15.47 -3.44,22.34c-2.58,6.87 -5.59,12.89 -9.45,18.05c-3.87,5.16 -8.59,9.45 -13.32,12.89c-5.16,3.44 -9.88,5.59 -15.47,6.02c5.59,0.86 12.03,2.58 18.9,5.16c6.87,2.58 13.32,6.87 19.33,12.03c6.02,5.16 11.17,12.46 15.04,20.62c3.87,8.59 6.02,18.9 6.02,30.51c0,16.33 -3.01,29.65 -9.02,39.96c-6.02,10.31 -14.18,18.48 -24.49,24.49c-10.31,6.02 -22.34,9.88 -36.09,12.46c-13.75,2.15 -27.93,3.44 -42.97,3.44c-11.6,0 -22.77,-0.43 -33.94,-0.86c-11.17,-0.43 -24.06,-1.72 -38.24,-3.44l0,-269.4l0.87,0zm70.47,109.13c6.02,0 12.03,-0.43 17.19,-1.72c5.16,-1.29 9.88,-3.01 14.18,-6.02c3.87,-3.01 7.3,-6.87 9.45,-11.6c2.15,-4.73 3.44,-11.17 3.44,-18.48c0,-7.3 -1.29,-13.32 -3.87,-17.62c-2.58,-4.73 -6.02,-8.16 -9.88,-10.74c-4.3,-2.58 -8.59,-4.3 -13.75,-5.16s-10.31,-1.29 -15.04,-1.29c-6.87,0 -12.89,0.43 -17.62,1.29l0,71.75l15.9,0l0,-0.41zm-16.33,119.02c3.44,0.43 7.73,0.86 12.03,1.29c4.73,0.43 8.59,0.43 12.46,0.43c5.16,0 10.74,-0.43 16.33,-1.29c5.59,-0.86 11.17,-3.01 15.9,-5.59c5.16,-3.01 9.02,-6.87 12.46,-12.03s4.73,-11.6 4.73,-20.19c0,-7.73 -1.29,-14.18 -3.87,-19.33s-6.02,-9.02 -10.74,-12.46c-4.73,-3.01 -9.88,-5.16 -16.33,-6.44s-13.32,-1.72 -21.05,-1.72l-21.91,0l0,77.33l-0.01,0z" fill="#010101"/><path id="svg_2" d="m303.500097,353.41c-15.9,0 -29.22,-2.58 -40.82,-7.73c-11.6,-5.16 -21.05,-12.03 -28.79,-21.48c-7.73,-9.02 -13.32,-19.76 -17.19,-31.79c-3.87,-12.03 -5.59,-25.35 -5.59,-39.53c0,-14.18 1.72,-27.5 5.59,-39.96c3.87,-12.46 9.45,-23.2 17.19,-32.22c7.73,-9.02 17.19,-16.33 28.79,-21.48s25.35,-7.73 40.82,-7.73c15.9,0 29.22,2.58 41.25,7.73c11.6,5.16 21.48,12.46 29.22,21.48c7.73,9.02 13.32,19.76 17.19,32.22c3.87,12.46 5.59,25.78 5.59,39.96c0,14.18 -1.72,27.5 -5.59,39.53c-3.87,12.03 -9.45,22.77 -17.19,31.79c-7.73,9.02 -17.62,16.33 -29.22,21.48c-12.03,5.15 -25.78,7.73 -41.25,7.73zm0,-40.38c13.75,0 24.06,-5.16 30.08,-15.47c6.02,-10.31 9.02,-25.35 9.02,-44.68c0,-19.33 -3.01,-34.37 -9.02,-44.68c-6.02,-10.31 -16.33,-15.47 -30.08,-15.47s-23.63,5.16 -29.65,15.47s-9.02,25.35 -9.02,44.68c0,19.33 3.01,34.37 9.02,44.68c6.02,10.31 15.91,15.47 29.65,15.47z" fill="#010101"/><path id="svg_3" d="m508.880097,353.41c-15.9,0 -29.22,-2.58 -40.82,-7.73c-11.6,-5.16 -21.05,-12.03 -28.79,-21.48c-7.73,-9.02 -13.32,-19.76 -17.19,-31.79c-3.87,-12.03 -5.59,-25.35 -5.59,-39.53c0,-14.18 1.72,-27.5 5.59,-39.96c3.87,-12.46 9.45,-23.2 17.19,-32.22c7.73,-9.02 17.19,-16.33 28.79,-21.48s25.35,-7.73 40.82,-7.73c15.9,0 29.22,2.58 41.25,7.73c11.6,5.16 21.48,12.46 29.22,21.48c7.73,9.02 13.32,19.76 17.19,32.22c3.87,12.46 5.59,25.78 5.59,39.96c0,14.18 -1.72,27.5 -5.59,39.53c-3.87,12.03 -9.45,22.77 -17.19,31.79c-7.73,9.02 -17.62,16.33 -29.22,21.48c-11.6,5.15 -25.35,7.73 -41.25,7.73zm0,-40.38c13.75,0 24.06,-5.16 30.08,-15.47c6.02,-10.31 9.02,-25.35 9.02,-44.68c0,-19.33 -3.01,-34.37 -9.02,-44.68c-6.02,-10.31 -16.33,-15.47 -30.08,-15.47s-23.63,5.16 -29.65,15.47s-9.02,25.35 -9.02,44.68c0,19.33 3.01,34.37 9.02,44.68c6.02,10.31 15.9,15.47 29.65,15.47z" fill="#010101"/><path id="svg_4" d="m629.180097,73.71c8.59,-1.29 17.19,-2.15 26.21,-2.15s17.62,0.86 26.64,2.15l0,273.26c-8.59,1.29 -17.62,2.15 -26.64,2.15s-17.62,-0.86 -26.21,-2.15l0,-273.26zm51.56,171.86l47.69,-91.95c9.88,-1.29 19.76,-2.15 29.65,-2.15c9.45,0 18.48,0.86 27.5,2.15l-48.98,89.37l57.57,103.98c-10.31,1.29 -20.19,2.15 -29.65,2.15c-8.59,0 -18.05,-0.86 -27.5,-2.15l-56.28,-101.4z" fill="#010101"/><path id="svg_5" d="m912.330097,222.37c0,-6.02 -0.86,-10.74 -3.01,-14.61c-2.15,-3.87 -4.73,-6.87 -8.16,-9.02c-3.44,-2.15 -7.73,-3.44 -12.89,-4.3c-5.16,-0.86 -10.74,-1.29 -17.19,-1.29c-13.32,0 -27.93,2.58 -42.97,7.3c-3.44,-6.44 -6.02,-12.46 -7.73,-18.48c-1.72,-5.59 -2.58,-12.46 -2.58,-20.62c11.17,-3.44 21.91,-6.44 33.08,-7.73c11.17,-1.72 21.05,-2.58 30.51,-2.15c25.78,0.43 45.97,6.44 60.58,19.33c14.61,12.46 21.48,32.65 21.48,60.15l-0.86,112.14c-8.59,2.58 -19.33,5.16 -31.79,7.73c-12.46,2.58 -26.64,3.44 -42.11,3.44c-12.89,0 -24.49,-1.29 -34.8,-3.87c-10.74,-2.15 -19.76,-6.02 -27.07,-11.6c-7.73,-5.16 -13.32,-12.03 -17.19,-20.19c-3.87,-8.16 -6.02,-18.48 -6.02,-30.51s2.58,-21.91 7.73,-30.08c5.16,-8.16 12.03,-14.61 20.19,-19.33c8.16,-4.73 17.19,-8.16 27.07,-10.31c9.88,-2.15 19.76,-3.01 30.08,-3.01c7.3,0 15.04,0.43 24.06,1.29l-0.41,-4.28zm-0.43,38.24c-3.01,-0.43 -6.02,-0.86 -9.88,-1.29c-3.44,-0.43 -6.44,-0.43 -9.45,-0.43c-12.03,0 -21.91,2.15 -29.22,6.44c-7.3,4.3 -10.74,11.17 -10.74,21.05c0,6.44 1.29,11.6 3.87,15.04c2.58,3.44 6.02,6.02 9.88,7.73c3.87,1.72 8.16,2.58 12.46,3.01c4.3,0.43 8.16,0.43 11.6,0.86c3.87,0 7.3,-0.43 11.17,-0.86c3.87,-0.43 6.87,-1.29 9.88,-1.72l0.43,-49.83z" fill="#010101"/><path id="svg_6" d="m1011.580097,198.31l-24.49,0l-1.72,-7.3l70.03,-89.37l8.59,0l0,56.29l45.11,0c0.86,3.87 1.29,7.3 1.29,9.88c0.43,3.01 0.43,6.02 0.43,9.45s0,6.87 -0.43,9.88c-0.43,3.44 -0.86,6.87 -1.29,10.74l-45.11,0l0,76.05c0,7.73 0.43,13.75 1.72,18.9c1.29,4.73 3.01,8.59 5.59,11.17s5.16,4.73 8.59,5.59c3.44,0.86 7.73,1.29 12.46,1.29c3.87,0 7.3,-0.43 11.17,-0.86c3.44,-0.43 6.87,-1.29 9.45,-1.72c1.72,4.73 3.01,9.45 3.87,14.61s1.29,9.45 1.29,13.75c0,2.58 0,5.16 0,6.87c0,1.72 -0.43,3.87 -0.43,5.59c-11.6,2.58 -23.2,4.3 -35.66,4.3c-22.77,0 -39.96,-5.16 -51.99,-15.9c-12.03,-10.74 -18.05,-27.93 -18.05,-51.56l0,-87.65l-0.42,0z" fill="#010101"/><path id="svg_7" d="m1246.170097,222.37c0,-6.02 -0.86,-10.74 -3.01,-14.61c-2.15,-3.87 -4.73,-6.87 -8.16,-9.02c-3.44,-2.15 -7.73,-3.44 -12.89,-4.3c-5.16,-0.86 -10.74,-1.29 -17.19,-1.29c-13.32,0 -27.93,2.58 -42.97,7.3c-3.44,-6.44 -6.02,-12.46 -7.73,-18.48c-1.72,-5.59 -2.58,-12.46 -2.58,-20.62c11.17,-3.44 21.91,-6.44 33.08,-7.73c11.17,-1.72 21.05,-2.58 30.51,-2.15c25.78,0.43 45.97,6.44 60.58,19.33c14.61,12.46 21.48,32.65 21.48,60.15l-0.86,112.14c-8.59,2.58 -19.33,5.16 -31.79,7.73s-26.64,3.44 -42.11,3.44c-12.89,0 -24.49,-1.29 -34.8,-3.87c-10.74,-2.15 -19.76,-6.02 -27.07,-11.6c-7.73,-5.16 -13.32,-12.03 -17.19,-20.19s-6.02,-18.48 -6.02,-30.51s2.58,-21.91 7.73,-30.08c5.16,-8.16 12.03,-14.61 19.76,-19.33c8.16,-4.73 17.19,-8.16 27.07,-10.31c9.88,-2.15 19.76,-3.01 30.08,-3.01c7.3,0 15.04,0.43 24.06,1.29l0.02,-4.28zm-0.43,38.24c-3.01,-0.43 -6.02,-0.86 -9.88,-1.29c-3.44,-0.43 -6.44,-0.43 -9.45,-0.43c-12.03,0 -21.91,2.15 -29.22,6.44c-7.3,4.3 -10.74,11.17 -10.74,21.05c0,6.44 1.29,11.6 3.87,15.04c2.58,3.44 6.02,6.02 9.88,7.73c3.87,1.72 8.16,2.58 12.46,3.01c4.3,0.43 8.16,0.43 11.6,0.86c3.87,0 7.3,-0.43 11.17,-0.86c3.87,-0.43 6.87,-1.29 9.88,-1.72l0.43,-49.83z" fill="#010101"/><path id="svg_8" d="m1335.110097,75.85c9.02,-1.29 17.62,-2.15 26.21,-2.15c8.59,0 17.62,0.86 26.64,2.15l0,98.82c3.87,-6.87 9.88,-12.46 18.91,-16.76c8.59,-4.3 18.48,-6.44 30.08,-6.44c11.17,0 21.48,2.15 31.36,6.02c9.45,3.87 18.05,9.88 24.92,18.05s12.46,18.05 16.33,30.51c3.87,12.03 6.02,26.64 6.02,43.4c0,16.33 -2.58,30.51 -7.3,43.4c-5.16,12.89 -12.03,23.63 -21.48,32.65c-9.45,9.02 -21.05,15.9 -34.8,20.62c-13.75,4.73 -29.22,7.3 -46.4,7.3c-5.59,0 -11.17,-0.43 -17.19,-0.86c-6.02,-0.43 -12.46,-1.29 -18.48,-2.15c-6.44,-0.86 -12.03,-2.15 -18.05,-3.44c-5.59,-1.29 -11.17,-3.01 -15.9,-4.73l0,-266.39l-0.87,0zm52.85,231.16c3.01,0.86 6.02,1.72 9.45,1.72c3.44,0.43 6.87,0.43 10.31,0.43c16.33,0 28.79,-4.73 38.24,-14.18c9.02,-9.45 13.75,-24.49 13.75,-44.68c0,-18.05 -3.01,-31.79 -8.59,-40.82c-5.59,-9.45 -15.47,-14.18 -29.22,-14.18c-9.88,0 -18.05,3.44 -24.49,9.88c-6.44,6.44 -9.45,17.19 -9.45,31.36l0,70.47z" fill="#010101"/><path id="svg_9" d="m1543.920097,78c9.02,-1.29 17.62,-2.15 26.64,-2.15c8.59,0 17.19,0.86 26.21,2.15l0,196.35c0,7.73 0.43,13.75 1.29,18.9c0.86,4.73 2.15,8.59 4.3,11.17c1.72,2.58 4.3,4.3 7.3,5.59c3.01,0.86 6.87,1.29 11.17,1.29c2.15,0 4.3,0 6.44,-0.43c2.58,-0.43 4.73,-0.43 6.87,-1.29c2.58,10.31 4.3,20.19 4.3,30.08c0,2.15 0,3.87 0,5.59s-0.43,3.44 -0.86,5.59c-3.87,1.29 -8.59,2.15 -14.18,2.58c-5.59,0.43 -10.74,0.86 -15.47,0.86c-19.33,0 -34.37,-5.16 -45.97,-15.9c-11.6,-10.74 -17.19,-27.93 -17.19,-51.56l0,-208.82l-0.85,0z" fill="#010101"/><path id="svg_10" d="m1697.310097,268.77c0.86,15.04 6.02,25.78 15.9,32.65c9.45,6.87 21.91,9.88 37.38,9.88c8.59,0 17.19,-0.86 25.78,-2.58c9.02,-1.72 17.19,-3.87 25.35,-6.87c2.58,5.16 5.16,11.17 7.3,18.05c2.15,6.87 3.01,14.61 3.44,22.34c-19.33,7.3 -41.25,11.17 -65.74,11.17c-18.05,0 -33.51,-2.58 -45.97,-7.3c-12.89,-5.16 -23.2,-12.03 -31.36,-20.62c-8.16,-9.02 -14.18,-19.33 -18.05,-31.79c-3.87,-12.03 -5.59,-25.35 -5.59,-39.96c0,-14.18 2.15,-27.5 6.02,-39.96c3.87,-12.46 9.88,-23.2 17.62,-32.65c7.73,-9.02 17.62,-16.33 29.22,-21.91c11.6,-5.16 24.92,-8.16 40.39,-8.16c13.32,0 25.35,2.58 36.09,7.3c10.31,4.73 19.33,11.17 26.64,19.33c7.3,8.16 12.89,18.05 16.76,29.22c3.87,11.17 5.59,23.63 5.59,36.52c0,4.73 0,9.45 -0.43,14.18c-0.43,4.73 -0.86,8.16 -1.29,11.17l-125.05,0l0,-0.01zm76.05,-36.95c-0.43,-12.03 -3.87,-21.48 -9.88,-28.79c-6.02,-7.3 -14.61,-11.17 -25.78,-11.17c-12.46,0 -21.91,3.44 -28.36,10.31c-6.44,6.87 -10.31,16.76 -11.6,29.65l75.62,0z" fill="#010101"/><path id="svg_11" d="m1876.050097,66.4c0,0 -26.64,-60.58 -42.97,-54.57c-71.75,27.5 40.82,183.46 40.82,183.46s120.73,-98.39 88.08,-151.67c-8.59,-14.18 -47.26,-18.9 -47.26,-18.9l-38.67,41.68z" fill="#CF2029"/><path id="svg_12" d="m1881.630097,81.01c-3.44,3.44 -9.02,0.86 -9.02,0.86c-5.16,-1.72 -6.02,-5.16 -8.59,-13.75c-3.44,-11.6 -12.46,-42.97 -24.92,-46.83c-1.72,-0.43 -4.3,-0.86 -9.02,1.72c-6.87,4.3 -10.74,11.17 -11.6,21.05c-3.87,41.68 41.68,116.87 57.57,138.35c0.86,-0.43 1.29,-1.29 2.15,-2.15c23.63,-21.05 94.95,-84.64 73.47,-133.19c-3.44,-7.3 -9.02,-10.74 -13.32,-12.03c-15.47,-4.73 -42.54,4.3 -55.43,40.82l-1.29,3.44l0,1.71l0,0l0,0zm-7.73,122.45c-12.03,-3.87 -65.74,-90.23 -71.75,-144.36c-3.44,-31.36 9.02,-45.54 20.19,-52.42c7.73,-4.73 15.47,-5.59 22.77,-3.44c16.76,5.59 26.64,27.5 32.22,45.97c17.62,-27.93 45.54,-38.24 67.03,-31.79c10.74,3.44 19.33,11.17 24.06,21.48c27.07,61.01 -48.98,128.9 -77.77,154.25c-3.01,2.58 -5.16,4.73 -6.44,6.02c0,0.43 -6.44,7.3 -10.31,4.29l0,0l0,0z" fill="#06060A"/></g></g></svg>